<svg id="Layer_1" data-name="Layer 1" xmlns="http://www.w3.org/2000/svg" viewBox="0 0 63.07 85.99"><defs><style>.cls-1{fill:#ed2024;stroke:#000;stroke-miterlimit:10;}</style></defs><title>boxing gloves</title><path class="cls-1" d="M228.39,293.51c2.06-6.68,7-9.27,13.28-10.05a68,68,0,0,1,21.63.57c10.75,2.12,15.86,8.48,15.61,19.39-.28,12.34-3.85,23.82-9.4,34.73a16.09,16.09,0,0,0-2,6.4c-.36,5.08-1.26,10.13-2,15.19s-3.29,7.81-8.41,8a174.37,174.37,0,0,1-18.84-.5c-3.22-.21-6.11-3.51-6.42-6.76-.56-5.85-.89-11.72-1.54-17.56-.18-1.69-.65-3.75-1.76-4.86-5.28-5.28-8-11.83-9.86-18.8a45.69,45.69,0,0,1-1.55-17.22,18.18,18.18,0,0,1,.67-3.5C219.5,293.2,222.9,291.54,228.39,293.51Zm29.08,49.08A52.09,52.09,0,0,0,264,342a4.91,4.91,0,0,0,3-1.91c6.74-11.74,10.59-24.36,10.6-38,0-8.54-3.94-13.85-12.19-16.18a55.61,55.61,0,0,0-27.1-.44c-4.74,1-7.58,4.36-8.86,9.45a9.93,9.93,0,0,1,1.16-.55c.22-.08.47-.07.26,0-3.17,4.6-2.21,9.77-1.85,14.94a6.79,6.79,0,0,1-1-2.61c-.18-2.7-.58-5.38.1-8.14.28-1.13-.38-3.22-1.25-3.72a5.79,5.79,0,0,0-4.46-.07c-2.46,1-3.56,3.44-3.86,6-1.61,13.7,1.53,26,10.85,36.51a3.75,3.75,0,0,1,1.09,1.66c.4,2.72,2.11,3.65,4.61,3.76a11.22,11.22,0,0,1,1.94.42,27.3,27.3,0,0,1-4.33,0c-.51,0-1,.9-1.47,1.38,1.53.94.37,2.27.47,3.41q.58,6.24,1.09,12.49c.16,1.94,1,2.87,3.11,2.81a23.27,23.27,0,0,1,4.25.65v.35l-4.78-.08c4.49,4.17,23.78,4.22,26.42.14l-9.92.31c3.25-.63,6.55-.89,9.77-1.53a3.75,3.75,0,0,0,2.51-2.24c.93-4.66,1.54-9.37,2.25-13.92L247.36,348l0-.63c3.3-.16,6.61-.29,9.91-.49,5.32-.32,8.33-1.21,9.4-3l-11,1.35-.07-.55,10.27-1.27a27.47,27.47,0,0,0-3.82-.15C260.71,343.22,259.39,342.9,257.47,342.59Z" transform="translate(-216.35 -282.36)"/><path class="cls-1" d="M257.47,342.59c1.92.31,3.24.63,4.59.71a27.47,27.47,0,0,1,3.82.15l-10.27,1.27.07.55,11-1.35c-1.07,1.75-4.08,2.64-9.4,3-3.3.2-6.61.33-9.91.49l0,.63,19.07-1.09c-.71,4.55-1.32,9.26-2.25,13.92a3.75,3.75,0,0,1-2.51,2.24c-3.22.64-6.52.9-9.77,1.53l9.92-.31c-2.64,4.08-21.93,4-26.42-.14l4.78.08v-.35a23.27,23.27,0,0,0-4.25-.65c-2.09.06-2.95-.87-3.11-2.81q-.51-6.24-1.09-12.49c-.1-1.14,1.06-2.47-.47-3.41.49-.48,1-1.36,1.47-1.38a27.3,27.3,0,0,0,4.33,0,11.22,11.22,0,0,0-1.94-.42c-2.5-.11-4.21-1-4.61-3.76a3.75,3.75,0,0,0-1.09-1.66c-9.32-10.48-12.46-22.81-10.85-36.51.3-2.52,1.4-4.94,3.86-6a5.79,5.79,0,0,1,4.46.07c.87.5,1.53,2.59,1.25,3.72-.68,2.76-.28,5.44-.1,8.14a6.79,6.79,0,0,0,1,2.61c-.36-5.17-1.32-10.34,1.85-14.94.21,0,0,0-.26,0a9.93,9.93,0,0,0-1.16.55c1.28-5.09,4.12-8.42,8.86-9.45a55.61,55.61,0,0,1,27.1.44c8.25,2.33,12.21,7.64,12.19,16.18,0,13.6-3.86,26.22-10.6,38a4.91,4.91,0,0,1-3,1.91A52.09,52.09,0,0,1,257.47,342.59Z" transform="translate(-216.35 -282.36)"/></svg>